<svg version="1" xmlns="http://www.w3.org/2000/svg" width="1066.667" height="1066.667" viewBox="0 0 800.000000 800.000000"><path d="M262.9 65.5c-16.3 3.5-32.6 13.6-42.7 26.7-2.5 3.2-5 6.6-5.6 7.7-1.9 3.4-9.1 16.4-13.5 24.6-2.4 4.4-5.6 10.2-7.1 13-1.5 2.7-4.5 8.4-6.7 12.5-16.2 30.3-17.7 32.8-23.4 38.7-8.6 8.9-20 11.6-32.2 7.8-6.5-2-34-18.2-63.3-37.2-2.1-1.3-2.7-.6-16.7 21.9-7.9 12.8-14.7 23.9-15.1 24.5-.4.8.6 2 2.6 3.3 1.8 1.1 4 2.4 4.8 3 .8.5 10.2 6.4 20.8 13 25.8 16 30 18.9 34.9 24.3 6.7 7.2 8.7 12 8.6 20.2-.1 3.8-.3 7.7-.5 8.6-1.3 5.6-13.9 25.3-28.8 44.9-10.8 14.2-29.8 42.2-33 48.6-15.5 31.4-9.1 65.3 17.4 91.8 9.7 9.7 14.5 13.3 32.1 24.1 1.1.6 5.7 3.5 10.2 6.3l8.2 5.1 15-24c8.3-13.2 15.1-24.4 15.1-24.8 0-.4-2.5-2.3-5.5-4.2-22.6-14-27.6-18.3-32-27.3-4.6-9.5-3.6-20.5 2.7-30 .7-1 12.6-17.7 26.4-37.1 29.9-41.9 31.7-45.4 31.7-62 0-11.3-2.5-20.2-8.5-30.2-3.5-5.9-15.3-18.3-20-21.1-1.5-.9-2.8-2.2-2.8-2.9 0-1.8.2-1.7 8 2.2 14.2 7.2 31.8 9.3 46.2 5.5 16.1-4.2 25.6-13.4 38.3-37.5 2.6-5 7.7-14.4 11.3-21 3.5-6.6 7.9-14.7 9.7-18 1.7-3.3 5.1-9.6 7.5-14 7.9-14.6 11.2-18.6 19-22.7 3.6-1.8 5.9-2.3 12-2.2 9.1.1 15.3 2.7 32.4 13.4 6.2 3.8 11.5 7 11.9 7 .6 0 5.8-8.1 23.4-36.7l7.3-11.7-10.6-6.5c-16.6-10.3-17.4-10.8-25.9-15.5-16.2-9-31.5-13.3-47.6-13.3-5.7 0-12.9.5-16 1.2zM388.3 200c-15.4 4-27.5 12.7-37.3 27-7.3 10.8-21.8 34.6-24.4 40.4-8.9 19.3-7.4 41.1 4 58.1 10.6 16.1 33.4 31.3 53.4 35.7 13.6 3 30 .6 41.7-6.2 9.9-5.7 21.5-18.6 29.8-33.2.6-1 4.3-7.2 8.4-13.8 9.5-15.5 13.2-25.5 13.7-37.5.2-5.7-.2-11.4-1.2-15.5-1.3-6.1-6.4-17.9-8.8-20.8-.6-.7-2.9-3.4-5.1-6-8.7-10.5-26.5-22-41.1-26.7-11-3.5-22.9-4-33.1-1.5zm31.3 39.5c15.1 6.7 21.2 21.5 14.9 36-3.1 7.2-20.2 34.2-24.8 39.2-2.2 2.4-6.4 5.5-9.3 6.9-9.5 4.6-20.2 2.5-30.1-6-8.1-7.1-10.5-16.6-6.9-27.6 2.5-7.6 20.2-36.4 26.1-42.5 8.9-9.3 18.6-11.2 30.1-6zM682.8 305.7c-1.3 2.1-2.7 4.6-3.3 5.5-.5 1-6.1 9.9-12.2 19.7-6.2 9.8-11.3 18.3-11.3 18.8s1.2 1.6 2.8 2.4c1.5.8 2.9 1.7 3.2 2 .3.3 3.7 2.4 7.5 4.7 15.2 9.1 21.6 15.5 25.5 25.9 2.7 7.1 2.3 13.8-1.2 21.5-2 4.2-14.6 22.7-28.2 41.3-28.4 38.7-32.9 47.4-32.9 63 0 11.2 1.1 16.4 5.8 25.7 4.7 9.4 13.8 19.6 22.9 25.7 1.2.8 2.3 1.6 2.5 1.7.1.1 0 .7-.4 1.3-.4.7-2.3.2-5.5-1.4-32-16.2-64-8.4-79.7 19.5-3.1 5.5-5.7 10.4-12.8 23.5-2.1 3.8-4.8 8.8-6 11-1.2 2.2-6.6 12.3-12.1 22.4-10.7 19.9-15.9 26.7-23 30.2-11.6 5.6-23.9 2.1-49.3-14.2-4.1-2.7-7.6-4.7-7.7-4.6-.1.1-3.8 6-8.2 13.2-4.5 7.1-8.6 13.5-9.2 14.2-.5.7-1 1.4-1 1.7 0 .3-2.7 4.9-6.1 10.2-4.8 7.6-5.8 9.9-4.7 10.6.7.5 3.6 2.3 6.3 3.9 2.8 1.7 6.9 4.2 9.2 5.7 18.3 11.8 30.5 17.8 43.8 21.8 7.8 2.4 10.8 2.7 23 2.8 15.7.1 20.9-1 32.9-7 16.6-8.3 28.3-20.8 39.7-42.4 10.9-20.3 19.7-36.8 30.7-57 7.6-14 13-20.2 21.7-24.8 6.5-3.4 16.2-3.6 24.7-.4 5.7 2.1 28 14.9 28.6 16.4.2.4.7.8 1.2.8.4 0 8.2 4.7 17.3 10.4l16.5 10.3 9.3-14.8c5.2-8.2 9.9-15.7 10.4-16.6.6-1 3.2-5.3 5.9-9.6 4-6.4 4.6-8.1 3.5-8.8-3.5-2.2-33.6-20.9-40.2-24.9-26.6-16.4-34.2-27-30.8-43 2.1-9.7 5.4-14.9 44-68 14.6-20.2 21.7-32.8 23.6-42 2.2-10.4 2.6-14.5 2.2-22.9-.6-11.8-1.1-14.6-4.7-23.6-6.4-16-17.2-29.9-32.1-41.2-7.5-5.7-37.2-24.3-38.7-24.3-.6 0-2.1 1.7-3.4 3.7zM245.8 390.4c-2.4 3.8-5 8-5.8 9.5-.9 1.4-3.2 5.2-5.3 8.4-2 3.1-3.7 6.1-3.7 6.6 0 .4 71.4.7 158.8.6l158.7-.1 9.7-15.5c5.3-8.5 9.7-15.7 9.7-16.2.1-.4-71.4-.6-158.8-.5l-158.9.3-4.4 6.9zM393.8 437.1c-16.9 2.6-31.7 12.5-42.7 28.8-7.9 11.6-21.8 34.8-24.4 40.7-8.3 18.8-6.6 40.9 4.3 57.4 9.9 15 32.3 30.2 50.7 34.6 28.2 6.7 53.1-5.2 70.8-33.8 3.3-5.4 7.9-12.8 10.2-16.5 5.7-9 11.1-19.7 12.5-24.7.6-2.3 1.3-4.8 1.6-5.6.3-.8.5-6.7.5-13 .1-12.5-.9-16.7-6.5-27.2-9.3-17.5-32.7-34.5-54.4-39.7-6.3-1.5-16.3-1.9-22.6-1zm28 41.4c13.7 7.4 18.7 21.2 12.7 35-3.3 7.5-18.8 32.3-24.1 38.3-8.8 10.1-19.7 13-30.5 8-15.3-7.1-21.5-20.3-16.4-34.9 1.2-3.4 18-31.6 21.7-36.4 4.6-6 10-10.4 15.3-12.3 5.2-2 15.5-.9 21.3 2.3z"/></svg>